<svg width="927" height="301" viewBox="0 0 927 301" fill="none" xmlns="http://www.w3.org/2000/svg">
<path d="M842.503 6.00631C845.909 12.7085 849.318 19.4088 852.728 26.1093V29.7002V33.2848H785.398V29.2934V25.2957L794.641 6.6207C784.409 -0.804748 773.942 -0.0925045 765.058 7.39185C768.464 13.6214 771.885 19.8393 775.306 26.0575L775.041 30.6027L774.406 34.4288L740.273 35.0516L706.139 35.6745V32.1535V28.6325L711.23 19.3341L716.32 10.0422C708.563 -0.280197 695.443 3.49374 688.016 7.92572L693.118 17.955L698.22 27.9842V31.7721V35.5665C698.22 35.5665 667.905 36.0632 652.774 38.4519C650.721 48.2884 641.338 52.8829 634.618 58.3896C593.372 58.1664 511.144 60.8365 511.144 60.8365L509.975 72.0797L635.843 72.3465C646.79 67.1986 653.748 57.2403 661.588 47.5086L847.725 43.3203L885.35 41.9983C890.373 56.1192 895.301 69.7968 903.434 81.969C908.539 87.7249 910.717 94.0485 913.014 101.557C915.61 107.436 916.042 112.757 916.042 119.124C916.879 126.085 914.458 131.602 912.358 137.969C910.716 145.975 907.014 151.631 902.778 157.964C896.921 164.931 894.348 173.646 891.113 182.401L885.35 198.023L659.608 190.282C657.374 187.019 655.143 183.754 652.912 180.488C649.705 188.149 653.025 202.109 676.104 202.65L697.183 203.292C697.183 203.292 698.03 208.394 698.457 210.945L687.807 230.387C700.318 242.061 709.467 235.867 716.045 231.562L706.581 210.97C707.163 208.412 708.318 203.292 708.318 203.292L752.627 202.898L852.711 206.718V209.565V212.419L844.802 233.545C856.143 240.931 863.204 238.59 873.095 230.259L862.627 212.502V209.61V206.718H877.54H886.072C891.822 207.65 893.216 204.085 894.77 198.728L900.175 185.038C902.692 175.794 907.239 169.077 912.512 161.853C916.497 157.77 931 132.316 925.942 110.652C924.979 103.637 922.309 97.7142 919.555 91.4895L915.513 82.3501C903.404 67.6048 897.824 48.9828 891.516 30.4562C882.44 31.209 873.364 31.9542 864.288 32.6997L863.317 29.7825L862.346 26.8653L873.013 7.39152C862.256 -3.81652 854.532 -0.603011 842.503 6.00631ZM850.544 73.2237L687.52 71.2789C628.46 76.5785 640.552 189.812 696.256 195.297C715.547 199.252 737.832 196.03 752.627 202.898C771.136 208.364 774.021 239.815 756.355 249.04C733.997 252.791 711.547 252.472 689.009 252.555L0 252.695V300.947L756.83 299.339C792.808 291.942 822.423 270.633 822.234 223.132C821.965 155.359 763.623 152.177 712.626 150.439C704.611 149.451 694.713 149.148 698.413 124.908H828.18H895.824C895.535 87.0729 879.783 74.0796 850.544 73.2237Z" fill="#292929"/>
</svg>
