<?xml version="1.0" encoding="UTF-8" standalone="no"?>
<!-- Created with Inkscape (http://www.inkscape.org/) -->

<svg
   width="78.384048mm"
   height="25.912188mm"
   viewBox="0 0 78.384048 25.912188"
   version="1.1"
   id="svg1"
   xml:space="preserve"
   xmlns="http://www.w3.org/2000/svg"
   xmlns:svg="http://www.w3.org/2000/svg"><defs
     id="defs1" /><g
     id="layer1"
     transform="translate(-66.653579,-100.27704)"><path
       style="fill:#000000;fill-opacity:1"
       d="m 66.653581,123.03647 v -3.15089 h 0.218138 0.218139 v 2.88458 2.88459 l 0.854376,-0.006 0.854376,-0.006 v -1.18758 -1.18765 l -0.163604,-0.007 -0.163604,-0.007 v -1.6834 -1.68341 h 0.557465 0.557465 v 1.68451 1.68452 h -0.169663 -0.169663 v 1.19976 1.19976 h 0.848316 0.848317 v -1.19969 -1.19977 h -0.169664 -0.169663 v -1.68451 -1.68451 h 0.569584 0.569584 v 1.68451 1.68451 h -0.169663 -0.169664 v 1.19977 1.19976 h 0.844412 0.844412 l 0.01598,-0.70895 c 0.0088,-0.38992 0.01601,-1.2543 0.01606,-1.92083 4.3e-5,-0.66654 0.0073,-1.64543 0.0161,-2.17533 l 0.01602,-0.96344 h 0.216355 0.216354 l -0.01785,2.88427 -0.01785,2.88428 h 0.851895 0.851895 v -1.19976 -1.19977 h -0.169663 -0.169664 v -1.68451 -1.68451 h 0.573495 0.573496 l -0.01599,0.7453 c -0.0088,0.40992 -0.01601,1.16745 -0.01603,1.68341 l -4.2e-5,0.9381 -0.163604,0.007 -0.163604,0.007 v 1.18764 1.18764 l 0.854376,0.006 0.854376,0.006 v -1.20007 -1.20007 h -0.169664 -0.169663 v -1.68451 -1.68452 h 0.557465 0.557465 v 1.68341 1.68341 l -0.163604,0.007 -0.163604,0.007 v 1.18764 1.18764 h 0.848317 0.848316 v -1.18783 -1.18765 l -0.163603,-0.007 -0.163604,-0.007 v -1.6834 -1.68341 h 0.557465 0.557465 v 1.68451 1.68452 H 80.17817 80.008506 v 1.20007 1.20007 l 0.854376,-0.006 0.854376,-0.006 0.0062,-2.87821 0.0062,-2.87822 h 0.218039 0.21804 v 2.88459 2.88458 l 0.854376,-0.006 0.854376,-0.006 v -1.18745 -1.18765 l -0.175723,-0.007 -0.175723,-0.007 v -1.68345 -1.68345 h 0.557465 0.557466 v 1.68451 1.68452 h -0.157545 -0.157544 v 1.19976 1.19976 h 0.848316 0.848317 v -1.1998 -1.19977 h -0.169664 -0.169663 v -1.68451 -1.68451 h 0.557465 0.557465 v 1.68451 1.68451 h -0.157627 -0.157545 v 1.19977 1.19976 h 0.848317 0.848316 v -2.88519 -2.88518 l 0.224198,0.007 0.224198,0.007 0.0061,3.14483 0.0062,3.14483 H 77.64543 66.653581 Z m 23.001496,-1.05434 v -1.27247 h 0.860435 0.860435 v 0.21776 0.21776 l -0.684712,0.006 -0.684713,0.006 -0.0068,0.29691 -0.0068,0.29691 h 0.558211 0.558212 v 0.23026 0.23025 h -0.557466 -0.557465 v 0.29086 0.29085 h 0.690772 0.690772 v 0.23025 0.23026 h -0.860435 -0.860435 z m 2.204953,1.21794 c -0.128839,-0.0872 -0.193231,-0.2359 -0.193231,-0.44615 v -0.17797 h 0.156151 0.156151 l 0.0075,0.10301 0.0075,0.10301 0.59988,0.007 0.599881,0.007 v -0.29127 -0.29128 h -0.608336 c -0.690308,0 -0.729875,-0.008 -0.842024,-0.17764 -0.06295,-0.095 -0.06467,-0.10779 -0.07213,-0.53392 -0.0087,-0.49765 0.01151,-0.59092 0.155482,-0.71733 l 0.0841,-0.0738 h 0.688069 0.688069 l 0.07802,0.0657 c 0.115927,0.0975 0.166916,0.23063 0.167542,0.43728 l 5.32e-4,0.17572 h -0.168335 -0.168336 l -0.0074,-0.11512 -0.0074,-0.11513 h -0.593822 -0.593821 v 0.29085 0.29085 l 0.643437,0.0121 c 0.717207,0.0135 0.718877,0.0139 0.826256,0.1866 0.05497,0.0884 0.05728,0.11069 0.05728,0.55265 0,0.41978 -0.0045,0.46909 -0.05058,0.55746 -0.02782,0.0533 -0.0867,0.12149 -0.130832,0.15149 -0.07836,0.0533 -0.09576,0.0545 -0.739614,0.0545 -0.643761,0 -0.661272,-0.001 -0.739917,-0.0545 z m 2.17958,-4e-5 c -0.04624,-0.0306 -0.108929,-0.10769 -0.142951,-0.17572 -0.06048,-0.12093 -0.06061,-0.12262 -0.06861,-0.93877 -0.0086,-0.88093 0.0079,-1.08938 0.09664,-1.21891 0.108332,-0.1581 0.101273,-0.15697 0.98763,-0.15697 h 0.802161 v 0.21779 0.2178 l -0.769544,0.006 -0.769544,0.006 -0.0064,0.81802 -0.0064,0.81802 h 0.775926 0.775926 v 0.23026 0.23026 h -0.796257 c -0.785354,0 -0.797384,-7.5e-4 -0.878613,-0.0546 z m 2.157148,-1.6e-4 c -0.0453,-0.0301 -0.106898,-0.1033 -0.136892,-0.16268 -0.05419,-0.10726 -0.05453,-0.11499 -0.05453,-1.21774 v -1.10979 h 0.157544 0.157545 v 1.04221 1.04222 h 0.60594 0.60594 v -1.04222 -1.04221 h 0.169664 0.169663 v 1.09805 1.09805 l -0.06396,0.12835 c -0.109582,0.2199 -0.111155,0.2203 -0.871664,0.2204 -0.641518,9e-5 -0.658818,-10e-4 -0.739247,-0.0546 z m 1.989959,-1.21774 v -1.27247 h 0.860435 0.860436 v 0.21813 0.21814 h -0.690772 -0.690772 v 0.30297 0.30297 h 0.557465 0.557465 v 0.23026 0.23026 h -0.557465 -0.557465 v 0.29085 0.29085 h 0.690772 0.690772 v 0.23026 0.23025 h -0.860436 -0.860435 z m 2.011723,0 v -1.27247 h 0.16966 0.16967 v 1.04221 1.04222 h 0.7756 0.7756 v 0.23026 0.23025 h -0.94526 -0.94527 z m 2.06073,0.1636 c 5.9e-4,-1.23428 0,-1.22945 0.16754,-1.37042 l 0.078,-0.0657 h 0.68706 0.68705 l 0.078,0.0657 c 0.16754,0.14097 0.16695,0.13614 0.16754,1.37042 l 5.3e-4,1.10887 h -0.15698 -0.15699 l -0.007,-0.43021 -0.007,-0.43022 h -0.60594 -0.60595 l -0.007,0.43022 -0.007,0.43021 h -0.15699 -0.15698 z m 1.54552,-0.5514 c 0.004,-0.18663 9e-4,-0.36387 -0.007,-0.39386 l -0.0135,-0.0545 h -0.59076 c -0.51635,0 -0.59262,0.005 -0.60548,0.0383 -0.0203,0.0529 -0.0186,0.72527 0.002,0.74575 0.009,0.009 0.28451,0.0137 0.612,0.0101 l 0.59543,-0.007 z m 1.45941,0.3878 v -1.27247 h 0.80216 c 0.8851,0 0.87946,-8.9e-4 0.98645,0.15524 0.092,0.13423 0.10571,0.30473 0.0975,1.21039 l -0.008,0.85211 -0.0606,0.10813 c -0.0333,0.0595 -0.0977,0.13309 -0.14295,0.1636 -0.0817,0.055 -0.089,0.0555 -0.87861,0.0555 h -0.79626 z m 1.54547,-0.006 -0.006,-0.81802 h -0.59382 -0.59382 l -0.006,0.81802 -0.006,0.81802 h 0.60659 0.60658 z m 0.66015,0.006 v -1.27247 h 0.86044 0.86043 v 0.21776 0.21777 l -0.69683,0.006 -0.69683,0.006 v 0.29085 0.29085 l 0.56353,0.007 0.56352,0.007 v 0.22981 0.22981 h -0.56958 -0.56959 v 0.29085 0.29086 h 0.70289 0.70289 v 0.23025 0.23026 h -0.86043 -0.86044 z m 2.81157,0 v -1.27247 l 0.18784,1.8e-4 0.18784,1.9e-4 0.33691,0.54516 c 0.18529,0.29984 0.34344,0.54483 0.35144,0.54444 0.008,-4e-4 0.16344,-0.24308 0.34542,-0.53929 l 0.33088,-0.53857 0.19629,-0.007 0.19629,-0.007 v 1.27346 1.27345 h -0.16967 -0.16966 v -0.93465 c 0,-0.53764 -0.009,-0.92894 -0.0215,-0.92129 -0.0118,0.007 -0.17271,0.25872 -0.35751,0.5587 -0.1848,0.29998 -0.34278,0.5455 -0.35106,0.54561 -0.008,1e-4 -0.17189,-0.25243 -0.36357,-0.5612 l -0.3485,-0.56138 -0.006,0.93707 -0.006,0.93706 h -0.16937 -0.16938 z m 2.64123,1.21794 c -0.0443,-0.03 -0.10591,-0.1026 -0.13689,-0.16136 l -0.0563,-0.10682 v -1.11112 -1.11111 h 0.15728 0.15729 l 0.006,1.03615 0.006,1.03616 0.59989,0.007 0.59988,0.007 v -1.04267 -1.04264 h 0.17036 0.17036 l -0.007,1.12098 c -0.007,1.08252 -0.008,1.12432 -0.0573,1.21794 -0.0278,0.0533 -0.0867,0.1215 -0.13083,0.15149 -0.0784,0.0533 -0.0958,0.0545 -0.73962,0.0545 -0.64376,0 -0.66127,-0.001 -0.73991,-0.0545 z m 2.23053,0.0381 c -0.02,-0.008 -0.0721,-0.0475 -0.11579,-0.0889 -0.0932,-0.0882 -0.15083,-0.25789 -0.15083,-0.44442 v -0.12891 h 0.16967 0.16966 v 0.10907 0.10907 h 0.60594 0.60594 v -0.28972 -0.28972 l -0.64057,-0.007 c -0.72677,-0.008 -0.71943,-0.006 -0.83792,-0.21536 -0.0584,-0.1031 -0.0606,-0.12251 -0.0606,-0.5432 0,-0.43377 3.9e-4,-0.43694 0.0676,-0.55127 0.10965,-0.18654 0.11628,-0.18798 0.86555,-0.18798 0.74785,0 0.75624,0.002 0.86369,0.18515 0.052,0.0886 0.068,0.15215 0.0768,0.30283 l 0.011,0.19068 h -0.17145 -0.17145 l -0.007,-0.11513 -0.007,-0.11513 h -0.59382 -0.59382 l -0.007,0.29691 -0.007,0.29691 h 0.63765 c 0.56354,0 0.64461,0.005 0.69758,0.0417 0.17246,0.11993 0.21747,0.26679 0.21747,0.7097 0,0.39716 -0.033,0.53364 -0.15819,0.65507 l -0.0868,0.0842 -0.67129,0.005 c -0.36921,0.003 -0.68765,-0.001 -0.70764,-0.009 z m 1.91477,-1.25602 v -1.27247 h 0.16966 0.16967 v 1.27247 1.27247 h -0.16967 -0.16966 z m 0.78651,1.22428 c -0.0406,-0.0261 -0.10064,-0.094 -0.1333,-0.15107 l -0.0594,-0.1037 -0.007,-0.92103 c -0.008,-1.02957 -0.003,-1.07607 0.14095,-1.22725 l 0.0891,-0.0937 h 0.81572 0.81571 v 0.21779 0.2178 l -0.75743,0.006 -0.75742,0.006 -0.006,0.81802 -0.006,0.81802 h 0.76381 0.76381 v 0.23025 0.23026 l -0.79378,-4.1e-4 c -0.74588,-3.8e-4 -0.79825,-0.003 -0.86771,-0.0478 z m 1.95248,-0.96373 c 8e-5,-0.55655 0.0103,-1.07367 0.0226,-1.14916 0.0124,-0.0755 0.0476,-0.17553 0.0783,-0.22233 0.10535,-0.16071 0.10977,-0.16153 0.86992,-0.16153 h 0.68472 l 0.088,0.0926 c 0.0484,0.0509 0.10127,0.13669 0.11743,0.19065 0.0211,0.0705 0.0294,0.40233 0.0294,1.17992 v 1.08182 h -0.16966 -0.16966 v -0.4367 -0.4367 l -0.59988,0.006 -0.59988,0.007 -0.007,0.43022 -0.007,0.43022 h -0.16911 -0.1691 z m 1.54561,-0.69077 -0.007,-0.39386 h -0.59382 -0.59382 l -0.007,0.3625 c -0.004,0.19938 -10e-4,0.37661 0.005,0.39386 0.009,0.0245 0.14265,0.0314 0.60722,0.0314 h 0.59518 z m 2.23532,1.21566 v -0.48705 l -0.42416,-0.7772 c -0.23329,-0.42746 -0.42416,-0.78135 -0.42416,-0.78642 0,-0.005 0.0894,-0.006 0.19873,-0.002 l 0.19872,0.007 0.30421,0.52626 c 0.16731,0.28945 0.31148,0.52667 0.32038,0.52717 0.009,5e-4 0.15605,-0.23904 0.32699,-0.53232 l 0.31079,-0.53322 h 0.20197 0.20197 l -0.0718,0.12724 c -0.0395,0.07 -0.2366,0.42959 -0.43805,0.79912 l -0.36628,0.67188 v 0.47335 0.47336 h -0.16966 -0.16966 z m 2.36196,0.43884 c -0.121,-0.0776 -0.18753,-0.22432 -0.2001,-0.44143 l -0.0109,-0.18903 h 0.17277 0.17278 v 0.10907 0.10907 h 0.60594 0.60594 v -0.29085 -0.29085 h -0.60672 c -0.6677,0 -0.71638,-0.008 -0.82956,-0.14288 -0.0952,-0.11312 -0.11464,-0.21788 -0.11479,-0.61779 -1.6e-4,-0.41742 0.0229,-0.51934 0.14669,-0.64951 l 0.088,-0.0926 h 0.68472 c 0.75521,0 0.76367,0.002 0.86871,0.15481 0.0564,0.0823 0.10223,0.27525 0.10223,0.4302 v 0.0936 h -0.16834 -0.16833 l -0.007,-0.11513 -0.007,-0.11513 h -0.59382 -0.59382 l -0.007,0.2958 -0.007,0.29579 0.65324,0.007 0.65324,0.007 0.0649,0.0606 c 0.0357,0.0333 0.0883,0.10422 0.11703,0.15754 0.0477,0.0887 0.0522,0.13311 0.0522,0.52111 0,0.40744 -0.002,0.42842 -0.0606,0.53229 -0.0333,0.0595 -0.0977,0.1331 -0.14295,0.16361 -0.0808,0.0544 -0.0946,0.0555 -0.73925,0.0551 -0.61004,-3.8e-4 -0.66216,-0.004 -0.73081,-0.0478 z m 2.168,-0.007 c -0.0453,-0.0301 -0.1069,-0.1033 -0.13689,-0.16268 -0.0538,-0.10651 -0.0545,-0.12052 -0.054,-1.05414 6e-4,-1.05305 0.003,-1.06914 0.16754,-1.20774 l 0.078,-0.0657 h 0.69176 0.69176 l 0.0914,0.0914 c 0.0509,0.0509 0.1033,0.13417 0.1182,0.18784 0.0173,0.0625 0.0267,0.41622 0.0267,1.00531 l -1.1e-4,0.90891 -0.059,0.1268 c -0.10355,0.2224 -0.11153,0.22445 -0.87612,0.22456 -0.64151,9e-5 -0.65881,-0.001 -0.73924,-0.0546 z m 1.3298,-1.2238 -0.006,-0.81802 h -0.59382 -0.59382 l -0.006,0.81802 -0.006,0.81802 h 0.60659 0.60659 z m 0.66016,0.005 v -1.27349 l 0.18754,0.007 0.18754,0.007 0.5588,0.90267 c 0.30734,0.49647 0.57196,0.91584 0.58806,0.93193 0.0229,0.0229 0.0293,-0.17598 0.0293,-0.90873 v -0.93803 h 0.15755 0.15754 v 1.27247 1.27247 h -0.17968 -0.17969 l -0.57774,-0.93272 c -0.31776,-0.51299 -0.58592,-0.93291 -0.59592,-0.93314 -0.01,-2.4e-4 -0.0182,0.41948 -0.0182,0.93272 v 0.93314 h -0.15754 -0.15754 z m 2.18138,10e-4 v -1.27245 h 0.16966 0.16967 v 1.27247 1.27247 h -0.16967 -0.16966 z m 0.5817,9.2e-4 v -1.27337 h 0.80105 c 0.90973,0 0.89799,-0.002 1.00977,0.18797 l 0.0676,0.115 0.007,0.90494 c 0.008,1.02702 1.2e-4,1.09204 -0.15293,1.24044 l -0.0871,0.0845 -0.82276,0.007 -0.82277,0.007 z m 1.54547,-0.007 -0.006,-0.81802 h -0.59382 -0.59382 l -0.006,0.81802 -0.006,0.81802 h 0.60658 0.60659 z m 0.90253,1.26141 c -0.0632,-0.0231 -0.14831,-0.11278 -0.20232,-0.21314 -0.0501,-0.0931 -0.0525,-0.13071 -0.0599,-0.94905 -0.008,-0.90566 0.006,-1.07617 0.0975,-1.21039 0.10517,-0.15348 0.11489,-0.15525 0.85545,-0.15525 0.64136,0 0.67433,0.002 0.74212,0.0505 0.039,0.0278 0.0952,0.096 0.12493,0.15149 0.0525,0.0983 0.0542,0.12459 0.0615,0.98564 0.004,0.48657 9.8e-4,0.92953 -0.007,0.98435 -0.008,0.0548 -0.0438,0.14468 -0.0794,0.19968 -0.10919,0.1684 -0.13485,0.17353 -0.85788,0.17136 -0.35125,-0.001 -0.65499,-0.008 -0.67499,-0.0152 z m 1.27886,-1.26141 -0.006,-0.81802 h -0.59382 -0.59383 l -0.006,0.81802 -0.006,0.81802 h 0.60659 0.60658 z m -23.11542,-1.53909 c 8.5e-4,-0.0167 0.0258,-0.15573 0.0553,-0.30903 l 0.0538,-0.27873 0.1628,-0.007 c 0.1208,-0.005 0.16282,9.3e-4 0.16288,0.0242 4e-5,0.0173 -0.0237,0.15956 -0.0527,0.31619 l -0.0528,0.28479 h -0.16542 c -0.11698,0 -0.16496,-0.009 -0.16388,-0.0303 z m -46.828599,-2.86278 v -1.43886 l 1.72693,-0.0165 c 2.83211,-0.0271 4.791964,-0.0615 5.011127,-0.088 0.915667,-0.1107 1.299652,-0.52435 1.348902,-1.45312 0.02528,-0.47667 -0.07103,-0.75756 -0.356964,-1.04121 -0.178202,-0.17677 -0.337201,-0.27952 -0.625182,-0.40403 -0.317649,-0.13733 -0.595508,-0.19513 -1.144145,-0.23799 -1.797479,-0.14044 -2.82875,-0.30368 -3.464194,-0.54835 -0.947907,-0.36497 -1.712264,-1.08509 -2.109225,-1.98716 -0.396969,-0.90208 -0.493169,-2.13531 -0.23813,-3.05268 0.351554,-1.26454 1.491512,-2.09929 3.11084,-2.27797 0.173196,-0.0191 2.501098,-0.0246 8.155957,-0.0191 l 7.913581,0.008 0.218139,0.0514 c 0.119976,0.0283 0.289033,0.0759 0.375683,0.10591 1.066188,0.36866 1.709679,1.36632 1.785609,2.76838 l 0.01542,0.28479 h -3.041517 c -1.672834,0 -5.826092,0.007 -9.229463,0.0161 l -6.187947,0.0161 0.01372,0.21173 c 0.01817,0.28043 0.07427,0.50127 0.187889,0.73964 0.156347,0.328 0.374522,0.52788 0.721745,0.6612 l 0.161876,0.0622 1.284593,0.0149 c 1.190143,0.0138 1.306641,0.0189 1.584452,0.0695 1.121955,0.20429 2.027708,0.63755 2.6775,1.28076 0.591896,0.58589 0.948017,1.28708 1.110981,2.18746 0.07083,0.39136 0.08892,1.27354 0.0346,1.6873 -0.123708,0.94221 -0.4727,1.70537 -1.065453,2.32988 -0.767499,0.80862 -1.999638,1.35086 -3.372575,1.4842 -0.142497,0.0138 -1.553289,0.0238 -3.423563,0.0242 l -3.181187,6.3e-4 z m 12.094569,-1.28437 c 0,-2.31376 0.0057,-2.77116 0.03726,-3.01378 0.123317,-0.94674 0.444367,-1.78346 0.951408,-2.47954 0.07283,-0.1 0.259187,-0.30761 0.414131,-0.4614 0.641342,-0.63658 1.409377,-1.00418 2.463103,-1.1789 0.382256,-0.0634 1.547873,-0.0629 1.951128,7.6e-4 1.441455,0.22767 2.496835,0.8757 3.222757,1.97887 0.373505,0.56761 0.65323,1.3123 0.776608,2.06752 0.04294,0.26285 0.0469,0.429 0.0488,2.04808 0.0018,1.50477 -0.0035,1.79072 -0.03585,1.95859 -0.166075,0.86076 -0.64426,1.41695 -1.431007,1.66443 -0.195235,0.0614 -0.412149,0.0989 -0.729405,0.12607 l -0.171939,0.0147 -0.0159,-0.29575 c -0.0087,-0.16266 -0.0159,-0.60489 -0.0159,-0.98272 0,-0.4171 -0.009,-0.68697 -0.023,-0.68697 -0.01265,0 -0.151196,-0.0168 -0.307885,-0.0373 -0.832293,-0.1091 -1.548624,-0.3142 -1.950898,-0.55856 -0.439404,-0.26693 -0.941107,-0.8476 -1.175502,-1.36052 -0.06697,-0.14655 -0.372262,-0.99991 -0.372262,-1.04055 0,-0.005 0.85206,-0.008 1.893466,-0.008 h 1.893466 l -0.01253,-0.52717 c -0.01485,-0.62485 -0.05104,-0.80693 -0.234848,-1.18158 -0.210435,-0.42894 -0.480098,-0.69864 -0.910339,-0.91049 -0.703668,-0.34647 -1.713485,-0.37121 -2.351043,-0.0576 -0.592487,0.29146 -0.984449,0.92095 -1.113152,1.78772 -0.03107,0.20927 -0.03759,0.53754 -0.03767,1.89807 -1.06e-4,1.78397 -0.0057,1.87888 -0.13587,2.29151 -0.243157,0.77098 -0.785011,1.30096 -1.560666,1.52646 -0.199472,0.058 -0.526419,0.10922 -0.830138,0.13007 l -0.236317,0.0162 z m 14.026016,2.5395 c -1.241016,-0.25736 -2.228005,-0.91369 -2.717253,-1.80694 -0.10721,-0.19573 -0.219433,-0.49787 -0.281589,-0.7581 -0.04475,-0.18738 -0.04638,-0.3523 -0.04773,-4.84866 -9.75e-4,-3.2434 0.0066,-4.69877 0.02487,-4.80011 0.122667,-0.67905 0.518628,-1.1999 1.125286,-1.48019 0.340987,-0.15754 0.806897,-0.2524 1.240982,-0.25265 l 0.245916,-1.4e-4 0.01452,0.34538 c 0.008,0.18996 0.05331,2.36317 0.100713,4.82935 0.08864,4.61121 0.08984,4.64245 0.192378,4.99517 0.09496,0.32666 0.319631,0.63494 0.545693,0.74876 0.208715,0.10509 0.287027,0.10943 1.982667,0.10983 1.519824,3.5e-4 1.630461,0.003 1.846925,0.0486 0.716056,0.14999 1.415865,0.5015 1.846451,0.92746 0.402747,0.39842 0.663787,0.91546 0.7592,1.50374 0.01983,0.12226 0.0361,0.28501 0.03615,0.36167 l 9.7e-5,0.13936 -3.314494,-0.002 -3.314493,-0.002 z m 8.480534,-1.05845 c -0.009,-0.54989 -0.0237,-1.8069 -0.0332,-2.79337 l -0.0173,-1.79357 -0.15754,-0.0181 c -0.89479,-0.10287 -1.673733,-0.31571 -2.115328,-0.57797 -0.206839,-0.12285 -0.591354,-0.48686 -0.804119,-0.76125 -0.27927,-0.36015 -0.386516,-0.57657 -0.606046,-1.22299 -0.07391,-0.21764 -0.134386,-0.39961 -0.134386,-0.40438 0,-0.005 0.852329,-0.009 1.894064,-0.009 H 101.175 l -0.0142,-0.52717 c -0.0112,-0.41297 -0.025,-0.57041 -0.0637,-0.7268 -0.18808,-0.75934 -0.67881,-1.28247 -1.423211,-1.51717 -0.474318,-0.14954 -1.194237,-0.17828 -1.62047,-0.0647 -0.731829,0.19506 -1.218408,0.72675 -1.4306,1.56324 -0.104541,0.41211 -0.110228,0.52947 -0.109223,2.2542 10e-4,1.78747 -0.0043,1.87792 -0.134801,2.29461 -0.143578,0.45835 -0.410601,0.8634 -0.740365,1.12309 -0.422188,0.33246 -1.093683,0.54482 -1.723584,0.54508 l -0.163603,7e-5 4.73e-4,-2.74491 c 5.11e-4,-2.96319 3e-5,-2.95034 0.132512,-3.54104 0.280363,-1.25004 0.934902,-2.25967 1.859856,-2.86882 0.712416,-0.46919 1.538465,-0.7074 2.600186,-0.74985 1.169798,-0.0468 2.26842,0.20849 3.10856,0.72223 0.99006,0.60542 1.70977,1.65536 2.02645,2.95627 0.1384,0.56851 0.13539,0.47953 0.13726,4.05685 0.002,3.63566 0.005,3.55203 -0.16078,4.07041 -0.13844,0.43235 -0.33322,0.75264 -0.65023,1.06921 -0.24855,0.24822 -0.42573,0.37259 -0.69922,0.49084 -0.19993,0.0864 -0.56812,0.1736 -0.73555,0.17413 l -0.10016,3.2e-4 z m 5.46773,0.97185 c -0.0844,-0.0121 -0.25347,-0.0541 -0.37568,-0.0934 -0.81844,-0.26301 -1.35127,-0.98921 -1.50679,-2.05363 -0.0334,-0.22845 -0.0372,-0.63029 -0.0308,-3.23002 l 0.007,-2.9691 0.0566,-0.20602 c 0.0632,-0.23002 0.20631,-0.54963 0.30378,-0.67866 0.28364,-0.37545 0.67538,-0.62349 1.1827,-0.74886 0.26556,-0.0656 0.71526,-0.10808 0.93089,-0.0879 l 0.17295,0.0162 0.0152,0.73141 c 0.008,0.40228 0.027,2.03479 0.0414,3.62781 0.0144,1.59301 0.0305,2.91003 0.0356,2.92669 0.007,0.0237 0.26193,0.0302 1.16751,0.0299 1.25051,-4.2e-4 1.61526,-0.0192 1.89696,-0.0978 0.5846,-0.16303 0.9886,-0.59262 1.15624,-1.22949 l 0.062,-0.23569 -0.004,-2.22986 c -0.002,-1.29235 -0.0142,-2.29373 -0.0278,-2.38179 -0.12193,-0.78963 -0.64532,-1.37784 -1.50088,-1.68675 l -0.20602,-0.0744 -1.64816,-0.0148 c -1.80242,-0.0162 -1.762,-0.0131 -2.1628,-0.16763 -0.85135,-0.32832 -1.41347,-1.24373 -1.47781,-2.40662 l -0.0144,-0.26055 2.83338,5.5e-4 c 1.60386,3.1e-4 2.96484,0.0108 3.13634,0.0241 1.24813,0.097 2.19178,0.55968 2.84091,1.39287 0.41391,0.53127 0.69728,1.1731 0.8538,1.93385 0.12843,0.62425 0.13431,0.77247 0.13432,3.38668 1e-5,1.45729 -0.01,2.52674 -0.0251,2.7025 -0.11955,1.38714 -0.74541,2.46712 -1.86462,3.21757 -0.5403,0.36228 -1.34617,0.69329 -2.02005,0.82974 l -0.30108,0.061 -1.75419,-0.003 c -0.9648,-0.002 -1.82324,-0.0129 -1.90765,-0.025 z m 11.56939,0.0121 c -0.64181,-0.0792 -1.14276,-0.24218 -1.51781,-0.49396 -0.69568,-0.46702 -1.08561,-1.18383 -1.15115,-2.11613 l -0.0159,-0.22609 1.47573,-0.0161 c 0.81165,-0.009 3.43353,-0.0161 5.82638,-0.016 4.40408,7e-5 8.3434,-0.0305 9.42844,-0.0731 0.43286,-0.017 0.6515,-0.0363 0.8066,-0.0712 0.55094,-0.12398 0.8626,-0.41499 1.00067,-0.93436 0.0531,-0.19989 0.0744,-0.76683 0.0351,-0.93568 -0.0916,-0.39368 -0.39029,-0.71429 -0.87667,-0.94112 -0.42461,-0.19802 -0.35269,-0.19031 -2.14057,-0.22943 -0.87946,-0.0192 -1.6075,-0.0298 -1.61786,-0.0233 -0.0104,0.006 -0.0188,0.13107 -0.0188,0.27704 v 0.2654 l 0.34059,0.54437 c 0.3807,0.60849 0.36956,0.56295 0.18029,0.73742 -0.1849,0.17044 -0.52274,0.29171 -0.81566,0.2928 -0.1861,7e-4 -0.46594,-0.0641 -0.62607,-0.14491 -0.1514,-0.0764 -0.36374,-0.26768 -0.36374,-0.32762 0,-0.0177 0.14724,-0.26744 0.32721,-0.55493 l 0.32721,-0.5227 v -0.28923 -0.28924 l -0.15149,-0.0132 c -0.0833,-0.007 -0.53323,-0.0191 -0.9998,-0.0264 -0.46658,-0.007 -1.08077,-0.0201 -1.36488,-0.0287 l -0.51657,-0.0155 -0.0747,-0.15323 c -0.0411,-0.0843 -0.12497,-0.20935 -0.18639,-0.27793 l -0.11168,-0.12469 0.101,-0.30211 c 0.0555,-0.16616 0.10573,-0.30685 0.11151,-0.31263 0.016,-0.016 0.39221,0.3829 0.46536,0.49343 l 0.0643,0.0972 0.79239,0.0149 c 0.43581,0.008 0.92055,0.021 1.07718,0.0285 0.19302,0.009 0.2848,0.005 0.2848,-0.0121 0,-0.0141 -0.0142,-0.0257 -0.0316,-0.0257 -0.0533,0 -0.55134,-0.29479 -0.74685,-0.44208 -0.86128,-0.64884 -1.38294,-1.64424 -1.50217,-2.86635 -0.0593,-0.6082 0.003,-1.30539 0.15901,-1.76917 0.30354,-0.90423 1.01714,-1.57542 2.03821,-1.9171 0.29019,-0.0971 0.71846,-0.19058 1.0408,-0.22718 0.14238,-0.0162 2.17029,-0.0248 5.83923,-0.0248 4.94213,-4e-5 5.65151,0.004 5.87304,0.0374 0.61004,0.0906 1.07507,0.30053 1.46734,0.66244 0.52539,0.48475 0.86598,1.31439 0.90742,2.21038 l 0.0141,0.305 -3.22102,0.0161 c -1.77156,0.009 -4.94159,0.0161 -7.04451,0.0161 l -3.82348,1e-5 v 0.10589 c 0,0.15678 0.067,0.51267 0.13135,0.69771 0.11639,0.33468 0.36344,0.6201 0.65694,0.75894 0.26689,0.12626 0.34798,0.13335 1.53122,0.13373 0.84285,2.8e-4 1.16084,0.009 1.37878,0.0375 1.75051,0.22947 3.08977,1.06557 3.69531,2.30697 l 0.0837,0.17159 0.36357,0.0147 c 0.19996,0.008 1.19794,0.0309 2.21774,0.0506 1.0198,0.0197 2.05091,0.0426 2.29137,0.0508 l 0.43719,0.0149 0.0925,-0.25086 c 0.34055,-0.92383 0.76714,-1.71381 1.21213,-2.2447 0.32489,-0.38759 0.5356,-0.75642 0.72828,-1.27477 0.11254,-0.30276 0.25574,-0.85867 0.25574,-0.9928 0,-0.0564 -0.032,-0.23319 -0.0711,-0.39282 -0.19407,-0.79176 -0.48218,-1.38177 -0.93597,-1.91669 -0.40144,-0.47322 -0.8962,-1.4014 -1.20987,-2.26975 l -0.0678,-0.18784 -0.0998,1.7e-4 c -0.0549,9e-5 -3.63354,0.0762 -7.9526,0.16905 l -7.85285,0.16889 -0.0486,0.0672 c -0.298,0.41203 -0.89513,0.89877 -1.53613,1.25215 l -0.20291,0.11186 h -4.42041 -4.42042 v -0.30297 -0.30297 h 4.35475 4.35476 l 0.13526,-0.0762 c 0.37472,-0.21112 0.83998,-0.56617 1.0761,-0.8212 0.0854,-0.0922 0.19489,-0.24311 0.24333,-0.33529 l 0.0881,-0.16759 0.35762,-0.0145 c 0.1967,-0.008 0.69575,-0.0202 1.109,-0.0272 0.41325,-0.007 0.93406,-0.0193 1.15735,-0.0273 l 0.40598,-0.0147 v -0.34074 -0.34075 l -0.32918,-0.52799 c -0.23748,-0.38092 -0.32499,-0.54116 -0.31416,-0.57527 0.0224,-0.0705 0.21015,-0.23412 0.35008,-0.30503 0.30015,-0.1521 0.77357,-0.17658 1.09661,-0.0567 0.19145,0.071 0.3866,0.20821 0.45604,0.32056 l 0.0501,0.081 -0.34038,0.54455 -0.34037,0.54454 0.007,0.32335 0.007,0.32334 0.24238,-0.005 c 3.21633,-0.0614 4.13837,-0.0811 4.34459,-0.0926 l 0.24844,-0.0139 v -0.28371 -0.28371 l -0.31837,-0.50774 c -0.1751,-0.27926 -0.32346,-0.52623 -0.32968,-0.54883 -0.0158,-0.0572 0.19879,-0.26644 0.35356,-0.34487 0.16896,-0.0856 0.39116,-0.13436 0.61444,-0.13479 0.23841,-4.6e-4 0.40396,0.0345 0.59959,0.1268 0.14729,0.0695 0.38929,0.2761 0.38929,0.33242 0,0.0141 -0.1527,0.26967 -0.33933,0.56797 l -0.33933,0.54236 v 0.25583 c 0,0.14071 0.008,0.26048 0.0182,0.26616 0.0151,0.008 4.82864,-0.0922 4.84753,-0.10144 0.003,-0.002 0.006,-0.0969 0.006,-0.21176 v -0.20879 l -0.33932,-0.54236 c -0.18663,-0.2983 -0.33933,-0.55389 -0.33933,-0.56797 0,-0.0563 0.242,-0.26297 0.38929,-0.33242 0.19563,-0.0922 0.36118,-0.12726 0.59959,-0.1268 0.22328,4.3e-4 0.44548,0.0492 0.61444,0.13479 0.15477,0.0784 0.36932,0.2877 0.35356,0.34487 -0.006,0.0226 -0.15458,0.26957 -0.32968,0.54883 l -0.31837,0.50774 v 0.22753 0.22752 l 0.45446,-0.014 c 0.24995,-0.008 0.71622,-0.0202 1.03616,-0.0277 l 0.5817,-0.0137 0.10585,0.32715 c 0.29987,0.92677 0.79129,1.87832 1.25326,2.42669 0.48835,0.57971 0.84355,1.37223 1.0376,2.31513 l 0.0624,0.30341 -0.059,0.28439 c -0.11265,0.54321 -0.31084,1.12676 -0.53019,1.5611 -0.11569,0.22907 -0.34122,0.56501 -0.53407,0.79554 -0.31189,0.37281 -0.60074,0.8579 -0.85874,1.44213 -0.16018,0.36275 -0.36487,0.89922 -0.43293,1.13471 l -0.0442,0.15309 -0.27873,-0.0133 c -0.15331,-0.007 -0.61958,-0.02 -1.03616,-0.0281 l -0.75743,-0.0147 v 0.1748 0.1748 l 0.31768,0.50729 c 0.17472,0.27901 0.3226,0.52612 0.32862,0.54913 0.0159,0.0606 -0.19074,0.26039 -0.35507,0.34334 -0.15088,0.0762 -0.44585,0.14562 -0.61844,0.14562 -0.17957,0 -0.47411,-0.0712 -0.6238,-0.15068 -0.15125,-0.0804 -0.36919,-0.29372 -0.35031,-0.34293 0.006,-0.0169 0.16012,-0.26879 0.34145,-0.55985 l 0.32969,-0.52922 v -0.15469 c 0,-0.10249 -0.0102,-0.15791 -0.0303,-0.16425 -0.0498,-0.0157 -2.75998,-0.0668 -2.7745,-0.0522 -0.007,0.007 0.009,0.12551 0.0372,0.26255 0.0699,0.34449 0.0774,0.40206 0.0998,0.77206 0.10691,1.76192 -0.53176,3.14192 -1.85251,4.00279 -0.58877,0.38375 -1.33905,0.65936 -2.24198,0.82355 l -0.30297,0.0551 -7.22281,0.003 c -3.97254,0.002 -7.25553,-10e-4 -7.29552,-0.006 z m 1.98748,-3.70919 c -0.8573,-0.0443 -1.76212,-0.344 -2.4698,-0.81817 -1.77372,-1.18844 -2.5761,-3.34195 -2.01436,-5.40634 0.31655,-1.16332 1.10618,-2.216 2.1436,-2.85772 1.78602,-1.10479 4.05683,-0.95867 5.69747,0.36661 0.21454,0.1733 0.62196,0.58878 0.77906,0.79447 0.45297,0.59308 0.78494,1.31848 0.92888,2.02976 0.26169,1.29318 -0.001,2.62381 -0.7353,3.71812 -0.84905,1.26609 -2.21423,2.05448 -3.7492,2.16515 -0.18588,0.0134 -0.35978,0.0224 -0.38645,0.02 -0.0267,-0.002 -0.11391,-0.008 -0.1939,-0.0119 z m 0.73287,-2.74614 c 0.38629,-0.0926 0.71038,-0.26911 0.99564,-0.54222 0.27497,-0.26327 0.47806,-0.59982 0.58761,-0.97378 0.0647,-0.22091 0.088,-0.65154 0.0485,-0.89638 -0.11381,-0.70549 -0.55538,-1.29639 -1.1962,-1.60071 -0.28856,-0.13703 -0.47977,-0.18319 -0.81879,-0.19765 -0.48812,-0.0208 -0.85867,0.0774 -1.25773,0.33338 -0.24335,0.1561 -0.56086,0.48791 -0.69649,0.72785 -0.4763,0.8426 -0.33575,1.9006 0.3426,2.57895 0.27615,0.27615 0.68565,0.49975 1.06805,0.58318 0.2299,0.0502 0.69111,0.0439 0.92677,-0.0126 z"
       id="path3" /></g></svg>
