<svg width="20" height="20" viewBox="0 0 20 20" fill="none" xmlns="http://www.w3.org/2000/svg">
<path fill-rule="evenodd" clip-rule="evenodd" d="M0 10C0 6.26154 0 4.3923 0.803847 3C1.33046 2.08788 2.08788 1.33046 3 0.803847C4.3923 0 6.26154 0 10 0C13.7385 0 15.6077 0 17 0.803847C17.9121 1.33046 18.6695 2.08788 19.1962 3C20 4.3923 20 6.26154 20 10C20 13.7385 20 15.6077 19.1962 17C18.6695 17.9121 17.9121 18.6695 17 19.1962C15.6077 20 13.7385 20 10 20C6.26154 20 4.3923 20 3 19.1962C2.08788 18.6695 1.33046 17.9121 0.803847 17C0 15.6077 0 13.7385 0 10ZM8.54348 18.4977C7.38997 18.4921 6.49542 18.4727 5.75559 18.4056C4.75097 18.3146 4.1798 18.1453 3.75 17.8971C3.06591 17.5022 2.49784 16.9341 2.10289 16.25C1.85474 15.8202 1.68541 15.249 1.59436 14.2444C1.50144 13.2192 1.5 11.8968 1.5 10C1.5 8.10316 1.50144 6.78082 1.59436 5.75559C1.68541 4.75097 1.85474 4.1798 2.10289 3.75C2.49784 3.06591 3.06591 2.49784 3.75 2.10289C4.1798 1.85474 4.75097 1.68541 5.75559 1.59436C6.78082 1.50144 8.10316 1.5 10 1.5C11.8968 1.5 13.2192 1.50144 14.2444 1.59436C15.249 1.68541 15.8202 1.85474 16.25 2.10289C16.9341 2.49784 17.5022 3.06591 17.8971 3.75C18.1453 4.1798 18.3146 4.75097 18.4056 5.75559C18.4986 6.78082 18.5 8.10316 18.5 10C18.5 11.8968 18.4986 13.2192 18.4056 14.2444C18.3146 15.249 18.1453 15.8202 17.8971 16.25C17.5022 16.9341 16.9341 17.5022 16.25 17.8971C15.8202 18.1453 15.249 18.3146 14.2444 18.4056C13.4678 18.476 12.5207 18.4939 11.2826 18.4985V12.7342H14.2174L14.6087 10.0759H11.2826V7.98734C11.2826 7.25329 11.8958 6.65823 12.6522 6.65823H15V4H12.6522C10.383 4 8.54348 5.78519 8.54348 7.98734V10.0759H6V12.7342H8.54348V18.4977Z" fill="#1E1E1F"/>
</svg>
