<svg width="20" height="20" viewBox="0 0 20 20" fill="none" xmlns="http://www.w3.org/2000/svg">
<path fill-rule="evenodd" clip-rule="evenodd" d="M10 15.5C12.7614 15.5 15 13.2614 15 10.5C15 7.73858 12.7614 5.5 10 5.5C7.23858 5.5 5 7.73858 5 10.5C5 13.2614 7.23858 15.5 10 15.5ZM10 14C11.933 14 13.5 12.433 13.5 10.5C13.5 8.567 11.933 7 10 7C8.067 7 6.5 8.567 6.5 10.5C6.5 12.433 8.067 14 10 14Z" fill="#ECEBED"/>
<path d="M16 4.5C16 5.32843 15.3284 6 14.5 6C13.6716 6 13 5.32843 13 4.5C13 3.67157 13.6716 3 14.5 3C15.3284 3 16 3.67157 16 4.5Z" fill="#ECEBED"/>
<path fill-rule="evenodd" clip-rule="evenodd" d="M0.803847 3C0 4.3923 0 6.26154 0 10C0 13.7385 0 15.6077 0.803847 17C1.33046 17.9121 2.08788 18.6695 3 19.1962C4.3923 20 6.26154 20 10 20C13.7385 20 15.6077 20 17 19.1962C17.9121 18.6695 18.6695 17.9121 19.1962 17C20 15.6077 20 13.7385 20 10C20 6.26154 20 4.3923 19.1962 3C18.6695 2.08788 17.9121 1.33046 17 0.803847C15.6077 0 13.7385 0 10 0C6.26154 0 4.3923 0 3 0.803847C2.08788 1.33046 1.33046 2.08788 0.803847 3ZM5.75559 18.4056C6.78082 18.4986 8.10316 18.5 10 18.5C11.8968 18.5 13.2192 18.4986 14.2444 18.4056C15.249 18.3146 15.8202 18.1453 16.25 17.8971C16.9341 17.5022 17.5022 16.9341 17.8971 16.25C18.1453 15.8202 18.3146 15.249 18.4056 14.2444C18.4986 13.2192 18.5 11.8968 18.5 10C18.5 8.10316 18.4986 6.78082 18.4056 5.75559C18.3146 4.75097 18.1453 4.1798 17.8971 3.75C17.5022 3.06591 16.9341 2.49784 16.25 2.10289C15.8202 1.85474 15.249 1.68541 14.2444 1.59436C13.2192 1.50144 11.8968 1.5 10 1.5C8.10316 1.5 6.78082 1.50144 5.75559 1.59436C4.75097 1.68541 4.1798 1.85474 3.75 2.10289C3.06591 2.49784 2.49784 3.06591 2.10289 3.75C1.85474 4.1798 1.68541 4.75097 1.59436 5.75559C1.50144 6.78082 1.5 8.10316 1.5 10C1.5 11.8968 1.50144 13.2192 1.59436 14.2444C1.68541 15.249 1.85474 15.8202 2.10289 16.25C2.49784 16.9341 3.06591 17.5022 3.75 17.8971C4.1798 18.1453 4.75097 18.3146 5.75559 18.4056Z" fill="#ECEBED"/>
</svg>
