<svg width="20" height="14" viewBox="0 0 20 14" fill="none" xmlns="http://www.w3.org/2000/svg">
<path fill-rule="evenodd" clip-rule="evenodd" d="M19 5.00475C19.6224 4.58626 19.6223 4.58607 19.6223 4.58607L19.6208 4.58388L19.6179 4.57967L19.6086 4.56598C19.6007 4.55457 19.5897 4.53867 19.5758 4.5188C19.5479 4.47909 19.508 4.42333 19.4579 4.35572C19.358 4.22103 19.2155 4.03665 19.0442 3.83729C18.7209 3.46125 18.2227 2.94506 17.6686 2.66818C17.1463 2.40721 16.4872 2.31466 16.0073 2.27709C14.9826 2.19685 14.25 3.0466 14.25 3.95545V8.25237H10.9988C9.48068 8.25237 8.25 9.48306 8.25 11.0012C8.25 12.5193 9.48068 13.75 10.9988 13.75H12C14.0711 13.75 15.75 12.0711 15.75 10V5.75475H19C19.2771 5.75475 19.5317 5.60193 19.662 5.35734C19.7922 5.11274 19.7769 4.81604 19.6223 4.58607L19 5.00475ZM15.8065 3.80461C15.7771 3.83407 15.75 3.88612 15.75 3.95545V4.25475H17.3527C17.228 4.14953 17.1076 4.06469 16.9981 4.00998C16.7483 3.88516 16.3335 3.80722 15.8902 3.77251C15.8575 3.76995 15.8321 3.77892 15.8065 3.80461ZM14.25 9.75237H10.9988C10.3091 9.75237 9.75 10.3115 9.75 11.0012C9.75 11.6909 10.3091 12.25 10.9988 12.25H12C13.2426 12.25 14.25 11.2426 14.25 10V9.75237Z" fill="#363538"/>
<path d="M1 0.25C0.585786 0.25 0.25 0.585786 0.25 1C0.25 1.41421 0.585786 1.75 1 1.75L13 1.75C13.4142 1.75 13.75 1.41421 13.75 1C13.75 0.585788 13.4142 0.250001 13 0.250001L1 0.25Z" fill="#363538"/>
<path d="M0.25 6C0.25 5.58579 0.585786 5.25 1 5.25H10C10.4142 5.25 10.75 5.58579 10.75 6C10.75 6.41421 10.4142 6.75 10 6.75H1C0.585786 6.75 0.25 6.41421 0.25 6Z" fill="#363538"/>
<path d="M1 10.25C0.585786 10.25 0.25 10.5858 0.25 11C0.25 11.4142 0.585786 11.75 1 11.75H7C7.41421 11.75 7.75 11.4142 7.75 11C7.75 10.5858 7.41421 10.25 7 10.25H1Z" fill="#363538"/>
</svg>
