<svg width="19" height="19" viewBox="0 0 19 19" fill="none" xmlns="http://www.w3.org/2000/svg">
<path fill-rule="evenodd" clip-rule="evenodd" d="M1.05738 3.20075L1.91682 1.48188C2.52732 0.260884 4.1546 -0.00319064 5.11988 0.962092L7.40162 3.24383C8.01034 3.85255 8.16125 4.78249 7.77626 5.55247L7.51353 6.07793C7.09083 6.92333 7.0838 7.92371 7.57634 8.73042C7.96194 9.36197 8.4556 10.0873 8.94725 10.5789C9.37097 11.0026 9.96825 11.4279 10.5295 11.7841C11.4701 12.3812 12.67 12.2686 13.5673 11.6084C14.3675 11.0196 15.4803 11.1163 16.167 11.8343L18.1264 13.8831C19.057 14.8562 18.7797 16.4522 17.5754 17.0543L15.7991 17.9425C14.4186 18.6327 12.8545 18.9259 11.3953 18.423C9.64257 17.8188 7.13069 16.6108 4.75988 14.24C2.38906 11.8692 1.18108 9.35728 0.576896 7.60455C0.0739071 6.14538 0.367139 4.58124 1.05738 3.20075ZM2.39902 3.87157L3.25846 2.1527C3.41109 1.84745 3.81791 1.78143 4.05922 2.02275L6.34096 4.30449C6.49314 4.45667 6.53087 4.68915 6.43462 4.88165L6.17189 5.40711C5.54625 6.6584 5.50281 8.21278 6.2961 9.51208C6.69481 10.1651 7.26372 11.0167 7.88659 11.6396C8.42826 12.1813 9.13645 12.6765 9.72563 13.0505C11.2554 14.0216 13.1277 13.7941 14.4563 12.8166C14.6491 12.6746 14.9174 12.6979 15.0829 12.871L17.0424 14.9199C17.275 15.1631 17.2057 15.5621 16.9046 15.7127L15.1283 16.6008C13.9769 17.1765 12.8426 17.3352 11.8841 17.0048C10.2931 16.4564 7.99458 15.3534 5.82054 13.1793C3.64649 11.0053 2.54344 8.70673 1.99501 7.11572C1.66462 6.15725 1.82332 5.02299 2.39902 3.87157Z" fill="#363538"/>
</svg>
