<svg width="21" height="20" viewBox="0 0 21 20" fill="none" xmlns="http://www.w3.org/2000/svg">
<path d="M6.81147 6.49701L6.4406 7.3657C6.14273 8.06338 6.04449 8.83978 6.33289 9.54166C6.67932 10.3847 7.34324 11.5831 8.57219 12.6787C9.80114 13.7743 11.0655 14.2949 11.9408 14.5409C12.6695 14.7458 13.4265 14.5567 14.0822 14.178L14.9259 13.6907C15.4978 13.3603 15.5874 12.5687 15.1037 12.1178L14.4569 11.4986C14.1001 11.1659 13.5525 11.1504 13.1779 11.4625C12.7578 11.8126 11.8428 12.278 11.3652 12.012C11.0802 11.8533 10.4024 11.3309 10.1827 11.1351C9.92786 10.9079 9.29648 10.2351 9.08949 9.93614C8.82508 9.55429 9.12654 8.68628 9.30896 8.25903L9.42357 7.99456C9.58971 7.60543 9.49098 7.15504 9.17544 6.87374L8.36408 6.1494C7.86371 5.70333 7.07493 5.87993 6.81147 6.49701Z" fill="#363538"/>
<path fill-rule="evenodd" clip-rule="evenodd" d="M17.2525 2.85536C13.2716 -0.926479 6.94057 -0.624606 3.33758 3.51884C0.775973 6.46468 0.243764 10.6646 1.98961 14.1563L2.72442 15.6259L2.30117 18.5886C2.20383 19.27 2.8408 19.8255 3.5026 19.6364L6.50207 18.7794L8.31676 19.2876C14.179 20.929 20.0674 16.7641 20.4724 10.6899C20.662 7.84464 19.5758 5.06255 17.5084 3.09854L17.2525 2.85536ZM4.46949 4.50311C7.51189 1.00435 12.8578 0.749442 16.2193 3.94286L16.4753 4.18604C18.2194 5.84288 19.1357 8.18986 18.9757 10.5901C18.6341 15.7143 13.6666 19.2278 8.7212 17.8431L6.49795 17.2206L3.90604 17.9611L4.27561 15.3742L3.33125 13.4854C1.85704 10.537 2.30644 6.9906 4.46949 4.50311Z" fill="#363538"/>
</svg>
