<svg width="18" height="19" viewBox="0 0 18 19" fill="none" xmlns="http://www.w3.org/2000/svg">
<path d="M6.01015 0L5.90463 0.000367133C2.7609 0.0427342 0.207385 2.33339 0.0251165 4.35287C-0.0916985 5.64048 0.200544 6.70036 0.868726 7.41821C1.47829 8.07182 2.35517 8.40345 3.47518 8.40345C4.63753 8.40345 5.77794 7.31049 5.77794 6.19676C5.77794 5.06588 4.84058 4.14563 3.68881 4.14563C3.06944 4.14563 2.65803 4.41448 2.38579 4.59276C2.27914 4.66222 2.16913 4.73425 2.1196 4.73425C2.10293 4.73425 2.06439 4.69078 2.02772 4.52737C1.90066 3.96437 2.09882 3.29219 2.55897 2.72915C2.9477 2.25269 3.86199 1.45425 5.61956 1.45425C8.07436 1.45425 9.42616 3.39616 9.42616 6.92276C9.42616 14.003 3.23205 16.9031 1.33386 17.6232C0.94517 17.7706 0.818823 18.09 0.866894 18.341C0.919414 18.6137 1.14815 18.7972 1.43744 18.7972C1.52895 18.7972 1.62572 18.779 1.72366 18.743L1.94073 18.6635C9.25862 16.0004 12.9696 11.9776 12.9696 6.7056C12.9696 2.09868 9.36224 0 6.01015 0Z" fill="black"/>
<path d="M16.4572 4.65713C17.3084 4.65713 18.0003 3.97713 18.0003 3.14117C18.0003 2.30558 17.3083 1.62598 16.4572 1.62598C15.6064 1.62598 14.9141 2.30558 14.9141 3.14117C14.9141 3.97713 15.6064 4.65713 16.4572 4.65713Z" fill="black"/>
<path d="M16.4572 7.75977C15.6064 7.75977 14.9141 8.43977 14.9141 9.27536C14.9141 10.1113 15.6064 10.7909 16.4572 10.7909C17.3084 10.7909 18.0003 10.1113 18.0003 9.27536C18.0003 8.43977 17.3083 7.75977 16.4572 7.75977Z" fill="black"/>
</svg>
