<svg width="25" height="21" viewBox="0 0 25 21" fill="none" xmlns="http://www.w3.org/2000/svg">
<path d="M24.1936 4.96351C24.6389 4.96351 25 4.60888 25 4.17147C25 3.73406 24.6389 3.37942 24.1936 3.37942H21.5054V2.79853H24.1936C24.6389 2.79853 25 2.4439 25 2.00649C25 1.56908 24.6389 1.21444 24.1936 1.21444H21.5054V0.792044C21.5054 0.354636 21.1443 0 20.6989 0C20.2536 0 19.8925 0.354636 19.8925 0.792044V1.21444H17.2043C16.7589 1.21444 16.3979 1.56908 16.3979 2.00649C16.3979 2.4439 16.7589 2.79853 17.2043 2.79853H19.8925V3.37938H17.2043C16.7589 3.37938 16.3979 3.73401 16.3979 4.17142C16.3979 4.60883 16.7589 4.96347 17.2043 4.96347H19.8925V6.47361L15.9284 5.70851C15.5401 5.63356 15.1634 5.88197 15.0871 6.26337L14.9707 6.84483C14.2085 6.53868 13.3744 6.36954 12.5 6.36954C11.6256 6.36954 10.7916 6.53868 10.0293 6.84483L9.91294 6.26337C9.83662 5.88197 9.45991 5.63356 9.07158 5.70851L5.10752 6.47361V4.96347H7.7957C8.24106 4.96347 8.60215 4.60883 8.60215 4.17142C8.60215 3.73401 8.24106 3.37938 7.7957 3.37938H5.10747V2.79853H7.79565C8.24102 2.79853 8.6021 2.4439 8.6021 2.00649C8.6021 1.56908 8.24102 1.21444 7.79565 1.21444H5.10747V0.792044C5.10747 0.354636 4.74639 0 4.30103 0C3.85566 0 3.49463 0.354636 3.49463 0.792044V1.21444H0.806445C0.361084 1.21444 0 1.56908 0 2.00649C0 2.4439 0.361084 2.79853 0.806445 2.79853H3.49463V3.37938H0.806445C0.361084 3.37938 0 3.73401 0 4.17142C0 4.60883 0.361084 4.96347 0.806445 4.96347H3.49463V6.78494L2.67124 6.94386C2.28291 7.01882 2.02998 7.38875 2.1063 7.7702L2.72148 10.8448C2.79336 11.2038 3.13135 11.4448 3.49463 11.4094V16.5093L0.423389 19.5257C0.108447 19.835 0.108447 20.3365 0.423389 20.6459C0.73833 20.9551 1.24893 20.9552 1.56387 20.6459L3.49463 18.7496V18.8508C3.49463 19.2882 3.85571 19.6429 4.30107 19.6429C4.74644 19.6429 5.10752 19.2882 5.10752 18.8508V18.7496L7.03823 20.6459C7.35308 20.9551 7.86377 20.9552 8.17871 20.6459C8.29746 20.5292 8.37129 20.3853 8.40054 20.2347C8.42974 20.3854 8.50361 20.5293 8.62236 20.6459C8.9373 20.9552 9.4479 20.9552 9.76284 20.6459L11.3374 19.0995C11.7146 19.166 12.1032 19.2009 12.5 19.2009C12.8969 19.2009 13.2854 19.1661 13.6627 19.0995L15.2373 20.6459C15.5521 20.9551 16.0628 20.9552 16.3777 20.6459C16.4964 20.5293 16.5703 20.3855 16.5995 20.235C16.6287 20.3855 16.7026 20.5293 16.8213 20.6459C17.1361 20.9552 17.6468 20.9552 17.9618 20.6459L19.8925 18.7496V18.8508C19.8925 19.2882 20.2536 19.6429 20.699 19.6429C21.1443 19.6429 21.5054 19.2882 21.5054 18.8508V18.7496L23.4362 20.6459C23.751 20.9551 24.2617 20.9552 24.5767 20.6459C24.8916 20.3365 24.8916 19.8351 24.5767 19.5257L21.5054 16.5093V11.4094C21.8687 11.4449 22.2067 11.2039 22.2786 10.8449L22.8938 7.77025C22.9701 7.38885 22.7171 7.01892 22.3288 6.94391L21.5054 6.78499V4.96351H24.1936ZM8.62231 19.5257C8.50356 19.6424 8.42974 19.7863 8.40049 19.9369C8.37129 19.7862 8.29741 19.6424 8.17866 19.5257L5.10742 16.5093V11.1016L6.26084 10.879C6.07031 11.4812 5.96763 12.1214 5.96763 12.7852C5.96763 15.3135 7.45688 17.4998 9.62061 18.5451L8.62231 19.5257ZM12.5 17.4583C9.8771 17.4583 7.74194 15.3626 7.74194 12.7852C7.74194 10.2085 9.87642 8.11212 12.5 8.11212C15.1236 8.11212 17.2581 10.2085 17.2581 12.7852C17.2581 15.3623 15.1231 17.4583 12.5 17.4583ZM19.8925 16.5093L16.8212 19.5257C16.7026 19.6423 16.6287 19.7861 16.5995 19.9366C16.5703 19.7861 16.4964 19.6423 16.3777 19.5257L15.3792 18.5451C17.543 17.4998 19.0322 15.3135 19.0322 12.7853C19.0322 12.1215 18.9296 11.4812 18.739 10.879L19.8924 11.1016V16.5093H19.8925Z" fill="black"/>
</svg>
