<svg width="16" height="21" viewBox="0 0 16 21" fill="none" xmlns="http://www.w3.org/2000/svg">
<path d="M11.5513 0C13.8955 0 15.7952 1.90014 15.7952 4.24394C15.7952 6.58767 13.8955 8.48762 11.5513 8.48762C9.20784 8.48762 7.30762 6.58767 7.30762 4.24394C7.30755 1.90014 9.20778 0 11.5513 0Z" fill="black"/>
<path d="M0.597457 18.2807C2.09339 19.2246 4.39299 17.4367 4.47891 17.3685C4.50361 17.3508 6.92914 15.5973 8.05989 16.6359C8.29596 16.8519 8.3946 17.1021 8.3633 17.4004C8.24437 18.5066 6.37352 19.9403 5.66236 20.3993C5.48484 20.514 5.45401 20.7255 5.59364 20.8714C5.67438 20.9559 5.79398 21 5.91563 21C6.00359 21 6.09327 20.9762 6.16721 20.9285C6.28352 20.8536 9.00421 19.0835 9.17828 17.46C9.23066 16.9729 9.05966 16.5449 8.67029 16.1875C8.1718 15.7297 7.22941 15.3209 5.57633 15.9725C4.67131 16.3286 3.96358 16.8453 3.92305 16.8749C3.43674 17.2571 1.87322 18.2375 1.09579 17.7472C0.926549 17.6405 0.839613 17.5114 0.821354 17.3411C0.760138 16.7531 1.5172 15.9065 1.8938 15.5522L2.73261 15.312C2.73261 15.312 2.56463 15.2966 2.1691 15.0055C1.79925 14.7326 1.70112 14.4375 1.70112 14.4375L1.32361 15.0673C1.05475 15.3134 -0.0937899 16.4277 0.00614322 17.3977C0.0427788 17.7547 0.247161 18.0602 0.597457 18.2807Z" fill="black"/>
<path d="M2.36802 15.985C2.722 15.985 3.03611 15.8255 3.25177 15.578L10.3951 9.00032C8.97729 8.65631 7.80012 7.69412 7.16592 6.41602L1.52265 13.9279C1.31466 14.2184 1.19141 14.4716 1.19141 14.8079C1.19141 15.4576 1.7188 15.985 2.36802 15.985Z" fill="black"/>
</svg>
