<svg width="23" height="23" viewBox="0 0 23 23" fill="none" xmlns="http://www.w3.org/2000/svg">
<path d="M22.4649 0.119548C22.3843 0.0116009 22.2413 -0.0286939 22.1162 0.0212142L17.6043 1.82051C17.5243 1.85236 17.4676 1.92446 17.4552 2.00959C17.4429 2.09476 17.477 2.17993 17.5446 2.23317L17.9468 2.54977L12.5283 9.43378L0.418106 15.9949C0.128135 16.152 -0.0353801 16.4711 0.00648708 16.7982C0.0483542 17.1253 0.286934 17.393 0.607137 17.472L5.53062 18.6874C6.87598 19.0194 7.94117 20.0454 8.32363 21.3773L8.59514 22.3229C8.71122 22.7272 9.08286 23.0043 9.50341 22.9999C9.92397 22.9956 10.29 22.7112 10.3978 22.3047L13.486 10.6667L19.1374 3.48689L19.3028 3.61707C19.538 3.80224 19.8788 3.76163 20.064 3.52642L22.4604 0.481888C22.5437 0.376052 22.5456 0.227495 22.4649 0.119548ZM9.28887 19.8153C8.87047 19.8153 8.53131 19.4761 8.53131 19.0577C8.53131 18.6394 8.87051 18.3002 9.28887 18.3002C9.70722 18.3002 10.0464 18.6394 10.0464 19.0577C10.0464 19.4762 9.70727 19.8153 9.28887 19.8153ZM10.1744 17.3175C9.93552 17.621 9.49578 17.6735 9.19215 17.4345L6.68008 15.4573C6.37654 15.2183 6.32412 14.7786 6.5631 14.475C6.80195 14.1715 7.24173 14.119 7.54536 14.358L10.0574 16.3353C10.3611 16.5742 10.4134 17.014 10.1744 17.3175Z" fill="black"/>
</svg>
