<svg width="25" height="16" viewBox="0 0 25 16" fill="none" xmlns="http://www.w3.org/2000/svg">
<path d="M23.3481 0H1.65191C0.741017 0 0 0.727785 0 1.62246V14.1507C0 15.0453 0.741017 15.7731 1.65191 15.7731H23.3481C24.259 15.7731 25 15.0453 25 14.1507V1.62246C25 0.727785 24.259 0 23.3481 0ZM3.89547 14.1685H1.65191C1.6419 14.1685 1.63379 14.1605 1.63379 14.1507V4.03547H3.35089V8.87867C3.35089 9.09285 3.52764 9.26645 3.74571 9.26645H3.89547V14.1685ZM7.87096 14.1685H5.52921V9.2665H5.65172C5.86979 9.2665 6.04655 9.0929 6.04655 8.87872V4.03547H7.33996V8.87867C7.33996 9.09285 7.51671 9.26645 7.73478 9.26645H7.87091V14.1685H7.87096ZM11.6831 14.1685H9.50476V9.2665H9.64089C9.85896 9.2665 10.0357 9.0929 10.0357 8.87872V4.03547H11.1521V8.87867C11.1521 9.09285 11.3289 9.26645 11.5469 9.26645H11.6831V14.1685H11.6831ZM15.6586 14.1685H13.3169V9.2665H13.453C13.6711 9.2665 13.8478 9.0929 13.8478 8.87872V4.03547H15.1276V8.87867C15.1276 9.09285 15.3044 9.26645 15.5224 9.26645H15.6586L15.6586 14.1685ZM19.4707 14.1685H17.2924V9.2665H17.4285C17.6466 9.2665 17.8233 9.0929 17.8233 8.87872V4.03547H18.9397V8.87867C18.9397 9.09285 19.1165 9.26645 19.3346 9.26645H19.4707V14.1685H19.4707ZM23.3662 14.1507C23.3663 14.1605 23.3581 14.1684 23.3481 14.1684H21.1045V9.2665H21.2407C21.4587 9.2665 21.6355 9.0929 21.6355 8.87872V4.03547H23.3662V14.1507Z" fill="black"/>
</svg>
