<svg width="19" height="21" viewBox="0 0 19 21" fill="none" xmlns="http://www.w3.org/2000/svg">
<path d="M18.9915 14.0119V1.17037C18.9907 0.995015 18.9497 0.822098 18.8715 0.664458C18.7933 0.506817 18.68 0.368502 18.5399 0.259785C18.4019 0.150074 18.2405 0.0721511 18.0677 0.0317463C17.895 -0.00865856 17.7152 -0.0105185 17.5416 0.0263029L6.84545 2.36113C6.5814 2.41962 6.34558 2.5649 6.17702 2.77294C6.00845 2.98098 5.91723 3.2393 5.91845 3.50519V13.2414C5.10712 12.8652 4.19348 12.7575 3.31457 12.9345C2.43566 13.1115 1.63889 13.5637 1.04378 14.2233C0.448668 14.8828 0.0873069 15.7141 0.0139074 16.5924C-0.0594921 17.4708 0.159027 18.3488 0.636683 19.0948C1.11434 19.8408 1.82538 20.4146 2.66313 20.7301C3.50088 21.0455 4.42018 21.0856 5.2831 20.8444C6.14603 20.6031 6.90606 20.0936 7.44917 19.3921C7.99229 18.6906 8.2892 17.835 8.29537 16.9538C8.30767 16.7516 8.30767 16.5489 8.29537 16.3467V4.43912L16.6146 2.62963V10.9066C15.8028 10.5301 14.8886 10.4225 14.0093 10.5999C13.1299 10.7774 12.3329 11.2302 11.7379 11.8905C11.143 12.5509 10.7821 13.383 10.7096 14.2619C10.6372 15.1408 10.8569 16.0191 11.3359 16.7649C11.8149 17.5107 12.5273 18.0836 13.3661 18.3978C14.2049 18.712 15.1248 18.7503 15.9877 18.5071C16.8506 18.2639 17.6099 17.7523 18.1515 17.0491C18.6932 16.3459 18.9879 15.4891 18.9915 14.6073C19.0028 14.409 19.0028 14.2102 18.9915 14.0119Z" fill="black"/>
</svg>
